<svg width="388" height="325" viewBox="0 0 388 325" fill="none" xmlns="http://www.w3.org/2000/svg">
<path d="M1 20C1 9.50659 9.50659 1 20 1H368C378.493 1 387 9.50659 387 20V285C387 306.539 369.539 324 348 324H40C18.4609 324 1 306.539 1 285V20Z" fill="#F1F6F9"/>
<rect x="17" y="67" width="30" height="38" rx="5" fill="#D0D8E2"/>
<path d="M35.9512 95.4336H39.0273L36.8535 92.2891C38.2891 91.0176 39.0684 89.0625 39.0684 86.5469V83.9492C39.0684 79.3145 36.4023 76.5664 32 76.5664C27.5977 76.5664 24.9316 79.3145 24.9316 83.9492V86.5469C24.9316 91.168 27.5977 93.9297 32 93.9297C32.9707 93.9297 33.8594 93.793 34.6387 93.5332L35.9512 95.4336ZM32 91.4277C29.4707 91.4277 28.0488 89.7598 28.0488 86.5469V84.0996C28.0488 80.8867 29.4707 79.2324 32 79.2324C34.5293 79.2324 35.9512 80.8867 35.9512 84.0996V86.5469C35.9512 87.9414 35.6914 89.0488 35.1719 89.8555L34.0781 88.2559H31.002L33.0938 91.3047C32.7656 91.3867 32.3965 91.4277 32 91.4277Z" fill="black"/>
<rect x="53" y="67" width="30" height="38" rx="5" fill="#D0D8E2"/>
<path d="M68.0957 84.373L70.3789 94.3398H73.1816L76.2168 77.6602H73.332L72.4297 83.6484L71.541 90.334H71.3633L69.2715 81.4746H66.7285L64.6367 90.334H64.459L63.5703 83.6484L62.668 77.6602H59.7832L62.8184 94.3398H65.6211L67.9043 84.373H68.0957Z" fill="black"/>
<rect x="89" y="67" width="30" height="38" rx="5" fill="#D0D8E2"/>
<path d="M109.756 91.7422H101.389V87.0938H109.277V84.6875H101.389V80.2441H109.756V77.6602H98.2441V94.3398H109.756V91.7422Z" fill="black"/>
<rect x="125" y="67" width="30" height="38" rx="5" fill="#D0D8E2"/>
<path d="M139.768 88.0645L143.145 94.3398H146.672L142.912 87.5586C144.977 86.875 146.289 85.0566 146.289 82.9102C146.289 79.6426 143.869 77.6602 139.918 77.6602H133.328V94.3398H136.445V88.0645H139.768ZM136.445 80.1211H139.562C141.805 80.1211 143.117 81.1602 143.117 82.9238C143.117 84.7012 141.791 85.7539 139.494 85.7539H136.445V80.1211Z" fill="black"/>
<rect x="161" y="67" width="30" height="38" rx="5" fill="#D0D8E2"/>
<path d="M177.572 94.3398V80.2441H183.041V77.6602H168.959V80.2441H174.428V94.3398H177.572Z" fill="black"/>
<rect x="197" y="67" width="30" height="38" rx="5" fill="#D0D8E2"/>
<path d="M213.572 94.3398V87.9961L219.67 77.6602H216.252L212.109 84.9062H211.904L207.748 77.6602H204.33L210.428 87.9961V94.3398H213.572Z" fill="black"/>
<rect x="233" y="67" width="30" height="38" rx="5" fill="#D0D8E2"/>
<path d="M248 91.8037C245.648 91.8037 244.309 90.4775 244.309 88.1123V77.4893H241.178V88.29C241.178 92.2002 243.721 94.5107 248 94.5107C252.279 94.5107 254.822 92.2002 254.822 88.29V77.4893H251.691V88.1123C251.691 90.4775 250.352 91.8037 248 91.8037Z" fill="black"/>
<rect x="269" y="67" width="30" height="38" rx="5" fill="#D0D8E2"/>
<path d="M289.414 94.3398V91.7695H285.572V80.2168H289.414V77.6602H278.586V80.2168H282.428V91.7695H278.586V94.3398H289.414Z" fill="black"/>
<rect x="305" y="67" width="30" height="38" rx="5" fill="#D0D8E2"/>
<path d="M327.068 87.2988V84.7012C327.068 80.0664 324.402 77.3184 320 77.3184C315.598 77.3184 312.932 80.0664 312.932 84.7012V87.2988C312.932 91.9199 315.598 94.6816 320 94.6816C324.402 94.6816 327.068 91.9199 327.068 87.2988ZM320 92.0156C317.512 92.0156 316.104 90.3887 316.104 87.2715V84.7285C316.104 81.5977 317.512 79.9844 320 79.9844C322.488 79.9844 323.896 81.5977 323.896 84.7285V87.2715C323.896 90.3887 322.488 92.0156 320 92.0156Z" fill="black"/>
<rect x="341" y="67" width="30" height="38" rx="5" fill="#D0D8E2"/>
<path d="M349.554 77.6602V94.3398H352.698V88.8711H356.034C359.931 88.8711 362.446 86.6836 362.446 83.2793C362.446 79.834 359.985 77.6602 356.171 77.6602H349.554ZM352.698 80.1348H355.378C357.921 80.1348 359.261 81.1875 359.261 83.2656C359.261 85.3301 357.921 86.3965 355.378 86.3965H352.698V80.1348Z" fill="black"/>
<rect x="35" y="118" width="30" height="38" rx="5" fill="#D0D8E2"/>
<path d="M54.2246 145.34H57.5879L51.8047 128.66H48.1816L42.4121 145.34H45.5566L46.8965 141.074H52.8984L54.2246 145.34ZM49.8496 131.723H49.9727L52.1602 138.723H47.6484L49.8496 131.723Z" fill="black"/>
<rect x="71" y="118" width="30" height="38" rx="5" fill="#D0D8E2"/>
<path d="M79.1709 140.732C79.3213 143.809 81.9189 145.682 86.0205 145.682C90.2314 145.682 92.8291 143.713 92.8291 140.486C92.8291 137.943 91.2705 136.508 87.6338 135.77L85.8291 135.387C83.6416 134.963 82.7256 134.266 82.7256 133.008C82.7256 131.654 83.9834 130.82 86.0615 130.82C88.0439 130.82 89.3154 131.695 89.4932 133.172H92.4873C92.3643 130.232 89.8076 128.318 86.0342 128.318C82.1104 128.318 79.5947 130.26 79.5947 133.295C79.5947 135.77 81.2217 137.328 84.6533 138.039L86.458 138.422C88.7822 138.887 89.6982 139.557 89.6982 140.76C89.6982 142.236 88.29 143.18 86.0752 143.18C83.792 143.18 82.3428 142.277 82.1514 140.732H79.1709Z" fill="black"/>
<rect x="107" y="118" width="30" height="38" rx="5" fill="#D0D8E2"/>
<path d="M115.15 128.66V145.34H120.865C126.156 145.34 128.85 142.496 128.85 136.904C128.85 131.477 126.143 128.66 120.865 128.66H115.15ZM118.295 131.244H120.482C123.969 131.244 125.65 133.09 125.65 136.945C125.65 140.938 124.01 142.742 120.482 142.742H118.295V131.244Z" fill="black"/>
<rect x="143" y="118" width="30" height="38" rx="5" fill="#D0D8E2"/>
<path d="M155.375 145.34V138.559H163.031V136.07H155.375V131.244H163.77V128.66H152.23V145.34H155.375Z" fill="black"/>
<rect x="179" y="118" width="30" height="38" rx="5" fill="#D0D8E2"/>
<path d="M197.753 139.967C197.753 141.854 196.399 142.988 194.212 142.988C191.587 142.988 190.247 141.512 190.247 138.654V135.346C190.247 132.488 191.587 131.012 194.171 131.012C196.222 131.012 197.657 132.229 197.753 134.088H200.938C200.829 130.506 198.286 128.318 194.239 128.318C189.7 128.318 187.062 130.902 187.062 135.346V138.654C187.062 143.098 189.7 145.682 194.239 145.682C198.245 145.682 200.938 143.453 200.938 140.049V136.562H193.938V138.859H197.753V139.967Z" fill="black"/>
<rect x="215" y="118" width="30" height="38" rx="5" fill="#D0D8E2"/>
<path d="M236.508 145.34V128.66H233.418V135.564H226.582V128.66H223.492V145.34H226.582V138.162H233.418V145.34H236.508Z" fill="black"/>
<rect x="251" y="118" width="30" height="38" rx="5" fill="#D0D8E2"/>
<path d="M265.973 145.511C269.746 145.511 272.002 143.487 272.002 140.069V128.489H262.24V131.046H268.844V140.028C268.844 141.819 267.805 142.79 265.932 142.79C264.264 142.79 263.088 141.847 263.033 140.425H259.998C260.012 143.501 262.391 145.511 265.973 145.511Z" fill="black"/>
<rect x="287" y="118" width="30" height="38" rx="5" fill="#D0D8E2"/>
<path d="M297.967 145.34V140.117L299.73 138.189L305.322 145.34H309.041L301.877 136.029L308.521 128.66H305.117L298.145 136.426H297.967V128.66H294.959V145.34H297.967Z" fill="black"/>
<rect x="323" y="118" width="30" height="38" rx="5" fill="#D0D8E2"/>
<path d="M343.797 142.688H335.307V128.66H332.203V145.34H343.797V142.688Z" fill="black"/>
<rect x="10" y="169" width="40.5295" height="38" rx="5" fill="#D0D8E2"/>
<path fill-rule="evenodd" clip-rule="evenodd" d="M39.5275 187.941C40.4486 187.941 40.8799 186.801 40.1894 186.192L30.9266 178.013C30.5485 177.679 29.981 177.679 29.6028 178.013L20.3401 186.192C19.6496 186.801 20.0809 187.941 21.002 187.941H22.6334C23.1856 187.941 23.6334 188.389 23.6334 188.941V197.238C23.6334 197.79 24.0811 198.238 24.6334 198.238H35.8961C36.4484 198.238 36.8961 197.79 36.8961 197.238V188.941C36.8961 188.389 37.3438 187.941 37.8961 187.941H39.5275Z" fill="#D0D8E2"/>
<path d="M40.1894 186.192L40.8513 185.442L40.1894 186.192ZM30.9266 178.013L30.2647 178.762L30.9266 178.013ZM29.6028 178.013L28.9409 177.263L29.6028 178.013ZM30.2647 178.762L39.5275 186.941L40.8513 185.442L31.5885 177.263L30.2647 178.762ZM21.002 186.941L30.2647 178.762L28.9409 177.263L19.6782 185.442L21.002 186.941ZM22.6334 186.941H21.002V188.941H22.6334V186.941ZM24.6334 197.238V188.941H22.6334V197.238H24.6334ZM35.8961 197.238H24.6334V199.238H35.8961V197.238ZM35.8961 188.941V197.238H37.8961V188.941H35.8961ZM39.5275 186.941H37.8961V188.941H39.5275V186.941ZM37.8961 188.941H37.8961V186.941C36.7915 186.941 35.8961 187.837 35.8961 188.941H37.8961ZM35.8961 199.238C37.0006 199.238 37.8961 198.342 37.8961 197.238H35.8961V197.238V199.238ZM22.6334 197.238C22.6334 198.342 23.5288 199.238 24.6334 199.238V197.238H24.6334H22.6334ZM22.6334 188.941V188.941H24.6334C24.6334 187.837 23.7379 186.941 22.6334 186.941V188.941ZM19.6782 185.442C18.2973 186.662 19.1597 188.941 21.002 188.941V186.941H21.002L19.6782 185.442ZM39.5275 186.941V186.941V188.941C41.3697 188.941 42.2322 186.662 40.8513 185.442L39.5275 186.941ZM31.5885 177.263C30.8323 176.595 29.6972 176.595 28.9409 177.263L30.2647 178.762V178.762L31.5885 177.263Z" fill="black"/>
<rect x="71" y="169" width="30" height="38" rx="5" fill="#D0D8E2"/>
<path d="M79.4238 196.34H92.5762V193.742H83.3477V193.564L92.3711 181.725V179.66H79.6973V182.244H88.4746V182.436L79.4238 194.289V196.34Z" fill="black"/>
<rect x="107" y="169" width="30" height="38" rx="5" fill="#D0D8E2"/>
<path d="M114.385 196.34H117.557L121.809 190.338H121.945L126.17 196.34H129.561L123.764 188L129.615 179.66H126.334L122.178 185.812H122.027L117.885 179.66H114.412L120.1 187.945L114.385 196.34Z" fill="black"/>
<rect x="143" y="169" width="30" height="38" rx="5" fill="#D0D8E2"/>
<path d="M158.212 193.988C155.614 193.988 154.274 192.498 154.274 189.654V186.346C154.274 183.502 155.614 182.012 158.185 182.012C160.29 182.012 161.712 183.352 161.78 185.43H164.966C164.911 181.574 162.409 179.318 158.226 179.318C153.687 179.318 151.034 181.916 151.034 186.346V189.654C151.034 194.084 153.687 196.682 158.226 196.682C162.327 196.682 164.952 194.398 164.952 190.748H161.78C161.739 192.758 160.386 193.988 158.212 193.988Z" fill="black"/>
<rect x="179" y="169" width="30" height="38" rx="5" fill="#D0D8E2"/>
<path d="M194.15 193.277H194.027L189.762 179.66H186.412L192.195 196.34H195.818L201.588 179.66H198.457L194.15 193.277Z" fill="black"/>
<rect x="215" y="169" width="30" height="38" rx="5" fill="#D0D8E2"/>
<path d="M230.123 196.34C234.143 196.34 236.59 194.535 236.59 191.609C236.59 189.436 234.854 187.768 232.352 187.59V187.398C234.279 187.125 235.66 185.607 235.66 183.803C235.66 181.205 233.541 179.66 229.986 179.66H223.41V196.34H230.123ZM226.5 181.984H229.18C231.326 181.984 232.516 182.818 232.516 184.336C232.516 185.785 231.23 186.605 228.947 186.605H226.5V181.984ZM226.5 193.975V188.834H229.193C231.914 188.834 233.322 189.682 233.322 191.363C233.322 193.127 231.969 193.975 229.234 193.975H226.5Z" fill="black"/>
<rect x="251" y="169" width="30" height="38" rx="5" fill="#D0D8E2"/>
<path d="M262.309 196.34V184.705H262.514L269.609 196.34H272.439V179.66H269.691V191.227H269.486L262.418 179.66H259.561V196.34H262.309Z" fill="black"/>
<rect x="287" y="169" width="30" height="38" rx="5" fill="#D0D8E2"/>
<path d="M297.762 190.611L297.434 183.926H297.666L300.893 192.416H303.107L306.334 183.926H306.566L306.238 190.611V196.34H308.918V179.66H305.568L302.109 189.422H301.904L298.418 179.66H295.082V196.34H297.762V190.611Z" fill="black"/>
<rect x="337.47" y="169" width="40.5295" height="38" rx="5" fill="#D0D8E2"/>
<path d="M354.099 196.826C353.817 196.826 353.547 196.706 353.358 196.497L346.277 188.671C345.933 188.29 345.933 187.71 346.277 187.329L353.358 179.503C353.547 179.294 353.817 179.174 354.099 179.174L368.8 179.174C369.352 179.174 369.8 179.622 369.8 180.174L369.8 195.826C369.8 196.378 369.352 196.826 368.8 196.826L354.099 196.826Z" fill="#D0D8E2"/>
<path d="M356.507 184.077L364.537 192.107M364.537 184.077L356.507 192.107M346.277 188.671L353.358 196.497C353.547 196.706 353.817 196.826 354.099 196.826L368.8 196.826C369.352 196.826 369.8 196.378 369.8 195.826L369.8 180.174C369.8 179.622 369.352 179.174 368.8 179.174L354.099 179.174C353.817 179.174 353.547 179.294 353.358 179.503L346.277 187.329C345.933 187.71 345.933 188.29 346.277 188.671Z" stroke="black" stroke-width="2" stroke-linejoin="round"/>
<rect x="10" y="220" width="58.9766" height="38" rx="5" fill="#D0D8E2"/>
<path d="M28.2773 245.799V243.611H23.6016V229.201H20.9492L16 232.318V234.875L20.7305 231.908H20.9355V243.611H16.0273V245.799H28.2773Z" fill="black"/>
<path d="M33.6094 234.014V234.082H36.1523V234.014C36.1523 232.209 37.4102 231.02 39.2832 231.02C41.1562 231.02 42.3594 232.086 42.3594 233.727C42.3594 234.957 41.7988 235.832 39.5156 238.156L33.7461 244.021V245.799H45.2852V243.57H37.5059V243.365L41.2793 239.605C44.123 236.803 45.0254 235.354 45.0254 233.59C45.0254 230.773 42.7285 228.859 39.3652 228.859C35.9883 228.859 33.6094 230.979 33.6094 234.014Z" fill="black"/>
<path d="M54.5957 238.279H56.6055C58.834 238.279 60.2559 239.387 60.2559 241.137C60.2559 242.832 58.875 243.912 56.6738 243.912C54.6367 243.912 53.2285 242.859 53.0781 241.232H50.5352C50.6992 244.213 53.1602 246.141 56.7559 246.141C60.3926 246.141 62.9766 244.117 62.9766 241.26C62.9766 239.018 61.582 237.5 59.2578 237.213V237.021C61.1309 236.611 62.252 235.189 62.252 233.207C62.252 230.637 59.9688 228.859 56.6875 228.859C53.2559 228.859 51.041 230.691 50.877 233.686H53.3652C53.5156 232.031 54.7324 231.006 56.5781 231.006C58.4375 231.006 59.6543 232.004 59.6543 233.576C59.6543 235.162 58.3965 236.242 56.5508 236.242H54.5957V238.279Z" fill="black"/>
<rect x="88.9883" y="220" width="202" height="38" rx="5" fill="#D0D8E2"/>
<rect x="311" y="220" width="67" height="38" rx="5" fill="#D0D8E2"/>
<path d="M340.269 242.712C340.269 245.159 338.724 246.663 336.222 246.663C333.241 246.663 331.696 244.667 331.696 240.825V237.175C331.696 233.347 333.241 231.337 336.194 231.337C338.532 231.337 340.173 232.964 340.282 235.411H343.153C343.058 231.269 340.433 228.726 336.249 228.726C331.546 228.726 328.825 231.829 328.825 237.175V240.825C328.825 246.171 331.546 249.274 336.249 249.274C340.351 249.274 343.153 246.69 343.153 242.876V238.706H335.989V241.003H340.269V242.712Z" fill="black"/>
<path d="M360.175 241.878V239.253C360.175 234.646 357.536 231.925 353.202 231.925C348.868 231.925 346.229 234.646 346.229 239.253V241.878C346.229 246.472 348.868 249.206 353.202 249.206C357.536 249.206 360.175 246.472 360.175 241.878ZM353.202 246.868C350.536 246.868 348.964 245.118 348.964 241.864V239.267C348.964 236.013 350.536 234.263 353.202 234.263C355.868 234.263 357.44 236.013 357.44 239.267V241.864C357.44 245.118 355.868 246.868 353.202 246.868Z" fill="black"/>
<path d="M1 20C1 9.50659 9.50659 1 20 1H368C378.493 1 387 9.50659 387 20V285C387 306.539 369.539 324 348 324H40C18.4609 324 1 306.539 1 285V20Z" stroke="black" stroke-width="2"/>
</svg>
